<?xml version="1.0" standalone="no"?>
<!DOCTYPE svg PUBLIC "-//W3C//DTD SVG 20010904//EN"
 "http://www.w3.org/TR/2001/REC-SVG-20010904/DTD/svg10.dtd">
<svg version="1.0" xmlns="http://www.w3.org/2000/svg"
 width="1024.000000pt" height="1024.000000pt" viewBox="0 0 1024.000000 1024.000000"
 preserveAspectRatio="xMidYMid meet">
<metadata>
Created by potrace 1.11, written by Peter Selinger 2001-2013
</metadata>
<g transform="translate(0.000000,1024.000000) scale(0.100000,-0.100000)"
fill="#000000" stroke="none">
<path d="M4974 9828 c-109 -171 -258 -404 -331 -517 -72 -113 -216 -339 -319
-501 -103 -162 -264 -414 -356 -559 -93 -145 -168 -264 -166 -265 2 -1 48 -31
103 -66 55 -35 144 -92 197 -127 54 -35 100 -63 103 -63 3 0 11 -5 18 -11 10
-9 133 -88 652 -418 33 -21 101 -64 150 -96 50 -32 196 -125 325 -208 129 -82
262 -167 295 -188 33 -22 123 -79 200 -128 77 -50 172 -110 211 -135 l71 -46
209 76 c294 106 317 115 339 125 11 4 79 29 150 55 72 26 166 60 210 76 44 16
105 38 135 49 30 10 62 22 70 26 8 3 22 7 30 9 8 2 23 7 35 13 11 5 66 26 122
47 101 36 101 37 91 63 -5 14 -25 67 -43 116 -18 50 -61 167 -95 260 -34 94
-79 217 -100 275 -21 58 -94 258 -162 445 -137 377 -113 335 -279 485 -46 41
-97 89 -115 105 -18 17 -47 44 -65 61 -19 16 -95 86 -169 154 -74 69 -155 143
-179 165 -25 22 -58 53 -75 69 -17 15 -66 60 -110 100 -43 39 -95 87 -115 106
-40 38 -233 215 -261 240 -18 16 -158 145 -245 225 -27 26 -77 71 -110 101
-33 30 -94 85 -135 124 -41 38 -78 70 -81 70 -3 0 -96 -140 -205 -312z"/>
<path d="M3468 7467 c-13 -18 -28 -41 -35 -52 -14 -23 -76 -121 -131 -207 -20
-32 -98 -153 -172 -269 -74 -115 -139 -217 -145 -226 -23 -37 -196 -309 -205
-323 -10 -14 -306 -478 -368 -575 -14 -22 -44 -69 -67 -105 -162 -253 -302
-472 -311 -490 -7 -12 -16 -26 -22 -32 -12 -12 -8 -27 41 -158 19 -52 63 -171
97 -265 34 -93 84 -228 110 -300 26 -71 93 -257 150 -412 l103 -282 96 35 c53
20 150 55 216 79 66 24 176 64 245 90 69 25 132 48 141 50 9 2 25 8 35 14 11
6 57 24 104 40 47 16 135 47 195 69 235 86 332 122 384 141 33 12 67 35 88 58
19 21 72 79 117 128 46 50 105 114 132 144 27 29 65 71 84 91 19 21 73 79 120
131 47 51 98 106 113 123 15 16 62 68 105 114 116 128 130 144 171 187 21 22
89 96 151 165 63 69 119 130 125 136 5 6 51 55 100 109 50 54 101 110 115 125
14 15 57 62 97 106 40 43 99 108 132 144 34 36 61 68 61 72 0 4 -10 13 -22 19
-12 7 -72 44 -133 83 -195 127 -904 581 -927 594 -40 22 -582 370 -595 381 -7
6 -14 11 -17 11 -3 0 -56 33 -118 73 -62 40 -164 106 -225 145 l-112 71 -23
-32z"/>
<path d="M7695 6460 c-11 -5 -65 -25 -120 -45 -145 -53 -318 -115 -335 -122
-8 -3 -19 -7 -25 -9 -21 -7 -261 -95 -280 -103 -11 -5 -166 -62 -345 -126
-318 -115 -326 -118 -370 -165 -67 -70 -166 -176 -250 -270 -41 -45 -86 -94
-100 -109 -14 -14 -72 -78 -130 -141 -57 -63 -123 -135 -146 -160 -23 -25 -54
-58 -69 -75 -15 -16 -66 -72 -113 -124 -48 -51 -98 -105 -111 -120 -40 -44
-214 -233 -241 -262 -14 -15 -59 -64 -101 -110 -43 -46 -88 -96 -100 -110 -46
-49 -194 -211 -231 -251 l-37 -41 67 -42 c37 -22 101 -63 142 -89 41 -27 91
-59 110 -71 19 -13 80 -51 135 -87 159 -102 253 -162 280 -178 14 -8 74 -46
133 -84 130 -84 199 -129 452 -290 107 -69 288 -184 403 -258 114 -73 217
-139 230 -146 12 -7 63 -39 112 -71 50 -32 93 -57 96 -55 5 3 179 274 531 827
207 325 252 396 333 522 47 72 90 140 97 152 7 12 53 84 101 160 49 76 164
257 257 402 l168 263 -17 42 c-10 22 -27 68 -39 101 -11 33 -35 98 -52 145
-17 47 -47 130 -66 185 -20 55 -39 109 -44 120 -5 11 -19 47 -31 80 -11 33
-23 67 -26 75 -3 8 -7 20 -9 25 -1 6 -12 35 -24 65 -18 48 -118 319 -165 450
-9 25 -21 60 -26 78 -11 34 -13 36 -44 22z"/>
<path d="M3995 3698 c-60 -22 -146 -53 -190 -70 -44 -16 -84 -30 -90 -32 -5
-1 -27 -10 -49 -19 -21 -9 -42 -17 -47 -17 -5 0 -37 -11 -71 -24 -35 -13 -115
-43 -178 -66 -63 -23 -137 -50 -165 -60 -27 -10 -108 -40 -180 -65 -71 -26
-139 -51 -150 -55 -11 -5 -52 -20 -92 -35 l-71 -26 23 -67 c13 -37 37 -103 53
-147 16 -44 68 -188 116 -320 48 -132 94 -256 101 -275 18 -47 46 -124 90
-245 19 -55 39 -107 42 -115 3 -8 7 -19 9 -25 6 -20 62 -171 77 -207 8 -20 13
-39 11 -41 -6 -6 43 -56 165 -167 51 -47 106 -96 121 -110 77 -71 215 -198
239 -220 15 -14 74 -68 131 -120 130 -119 226 -208 260 -240 14 -14 63 -59
109 -100 46 -41 95 -86 110 -100 141 -131 256 -237 274 -252 12 -11 49 -45 83
-76 178 -167 328 -302 336 -302 3 0 26 35 53 78 27 42 67 106 90 142 63 98
325 509 533 835 102 160 192 301 201 314 9 13 23 36 32 50 46 74 434 680 450
703 l19 27 -42 29 c-24 16 -113 73 -198 127 -85 54 -185 118 -222 142 -83 52
-113 72 -545 349 -188 120 -350 224 -360 229 -10 6 -43 26 -73 46 -30 20 -90
58 -133 85 -160 102 -272 174 -282 182 -5 4 -17 11 -25 15 -8 4 -55 34 -105
67 -49 33 -98 63 -107 67 -10 3 -18 9 -18 14 0 5 -4 9 -10 9 -5 0 -54 29 -109
65 -54 36 -100 65 -102 64 -2 0 -53 -18 -114 -41z"/>
</g>
</svg>
